<svg xmlns="http://www.w3.org/2000/svg" width="240" height="60" viewBox="0 0 240 60">
  <g transform="translate(-0.000,1.887) scale(0.295931)" fill="#000" stroke="none" fill-rule="evenodd">
    <path d="M733.00,138.00 L732.00,139.00 L732.00,142.00 L734.00,144.00 L737.00,144.00 L738.00,143.00 L738.00,139.00 L737.00,138.00 Z M790.00,112.00 L790.00,143.00 L795.00,143.00 L795.00,134.00 L794.00,133.00 L794.00,127.00 L795.00,126.00 L797.00,131.00 L797.00,136.00 L798.00,137.00 L798.00,141.00 L799.00,143.00 L802.00,143.00 L803.00,141.00 L804.00,131.00 L806.00,127.00 L807.00,128.00 L807.00,131.00 L806.00,132.00 L806.00,143.00 L810.00,143.00 L810.00,112.00 L804.00,112.00 L804.00,114.00 L803.00,115.00 L803.00,120.00 L802.00,121.00 L802.00,126.00 L800.00,129.00 L799.00,128.00 L799.00,122.00 L798.00,121.00 L797.00,112.00 Z M771.00,112.00 L770.00,113.00 L769.00,113.00 L768.00,114.00 L768.00,115.00 L767.00,116.00 L767.00,118.00 L766.00,119.00 L766.00,137.00 L767.00,138.00 L767.00,140.00 L770.00,143.00 L771.00,143.00 L772.00,144.00 L779.00,144.00 L780.00,143.00 L781.00,143.00 L784.00,140.00 L784.00,138.00 L785.00,137.00 L785.00,119.00 L784.00,118.00 L784.00,116.00 L780.00,112.00 Z M774.00,117.00 L776.00,117.00 L779.00,120.00 L779.00,136.00 L776.00,139.00 L774.00,139.00 L773.00,138.00 L773.00,137.00 L772.00,136.00 L772.00,120.00 L773.00,119.00 L773.00,118.00 Z M747.00,112.00 L744.00,115.00 L744.00,116.00 L743.00,117.00 L743.00,119.00 L742.00,120.00 L742.00,136.00 L743.00,137.00 L743.00,139.00 L744.00,140.00 L744.00,141.00 L746.00,143.00 L747.00,143.00 L748.00,144.00 L756.00,144.00 L760.00,140.00 L760.00,138.00 L761.00,137.00 L761.00,132.00 L755.00,132.00 L755.00,136.00 L752.00,139.00 L751.00,139.00 L749.00,137.00 L749.00,136.00 L748.00,135.00 L748.00,122.00 L749.00,121.00 L749.00,119.00 L751.00,117.00 L752.00,117.00 L755.00,120.00 L755.00,122.00 L761.00,122.00 L761.00,120.00 L760.00,119.00 L760.00,116.00 L756.00,112.00 Z M606.00,73.00 L619.00,143.00 L635.00,143.00 L643.00,96.00 L651.00,143.00 L667.00,143.00 L679.00,74.00 L665.00,73.00 L658.00,119.00 L650.00,74.00 L636.00,74.00 L628.00,119.00 L621.00,74.00 Z M573.00,73.00 L567.00,76.00 L562.00,81.00 L559.00,89.00 L559.00,130.00 L562.00,137.00 L567.00,142.00 L575.00,145.00 L586.00,145.00 L595.00,141.00 L599.00,136.00 L601.00,131.00 L602.00,121.00 L587.00,121.00 L587.00,128.00 L583.00,132.00 L578.00,132.00 L574.00,128.00 L574.00,113.00 L573.00,112.00 L574.00,111.00 L601.00,111.00 L601.00,86.00 L599.00,81.00 L591.00,74.00 Z M576.00,86.00 L577.00,86.00 L578.00,85.00 L584.00,85.00 L586.00,87.00 L586.00,88.00 L587.00,89.00 L587.00,100.00 L586.00,101.00 L574.00,101.00 L573.00,100.00 L574.00,99.00 L574.00,89.00 L575.00,88.00 L575.00,87.00 Z M438.00,73.00 L431.00,73.00 L426.00,76.00 L422.00,82.00 L421.00,81.00 L421.00,74.00 L407.00,74.00 L407.00,143.00 L421.00,143.00 L421.00,100.00 L424.00,93.00 L427.00,90.00 L432.00,89.00 L433.00,88.00 L438.00,89.00 Z M701.00,72.00 L692.00,75.00 L687.00,80.00 L684.00,88.00 L684.00,95.00 L687.00,104.00 L693.00,110.00 L705.00,116.00 L710.00,121.00 L711.00,128.00 L706.00,132.00 L702.00,132.00 L697.00,127.00 L697.00,121.00 L683.00,122.00 L683.00,129.00 L686.00,137.00 L691.00,142.00 L700.00,145.00 L707.00,145.00 L715.00,143.00 L721.00,139.00 L725.00,132.00 L726.00,120.00 L723.00,111.00 L715.00,104.00 L701.00,97.00 L698.00,93.00 L698.00,89.00 L701.00,85.00 L705.00,84.00 L710.00,87.00 L711.00,94.00 L724.00,94.00 L724.00,85.00 L722.00,80.00 L715.00,74.00 L708.00,72.00 Z M366.00,73.00 L360.00,76.00 L355.00,82.00 L353.00,88.00 L353.00,95.00 L367.00,95.00 L368.00,88.00 L371.00,85.00 L377.00,85.00 L380.00,89.00 L380.00,97.00 L378.00,100.00 L359.00,107.00 L354.00,112.00 L351.00,119.00 L352.00,134.00 L354.00,138.00 L361.00,144.00 L371.00,144.00 L375.00,142.00 L380.00,136.00 L382.00,143.00 L396.00,143.00 L395.00,141.00 L395.00,93.00 L393.00,83.00 L388.00,76.00 L382.00,73.00 L377.00,72.00 Z M379.00,110.00 L380.00,111.00 L380.00,127.00 L376.00,131.00 L375.00,131.00 L374.00,132.00 L371.00,132.00 L370.00,131.00 L369.00,131.00 L367.00,129.00 L367.00,128.00 L366.00,127.00 L366.00,120.00 L367.00,119.00 L367.00,118.00 L371.00,114.00 L372.00,114.00 L373.00,113.00 L374.00,113.00 L375.00,112.00 L376.00,112.00 L377.00,111.00 L378.00,111.00 Z M271.00,74.00 L271.00,143.00 L286.00,143.00 L286.00,89.00 L292.00,85.00 L299.00,89.00 L299.00,143.00 L314.00,143.00 L314.00,90.00 L319.00,85.00 L323.00,85.00 L327.00,89.00 L327.00,143.00 L342.00,143.00 L342.00,85.00 L335.00,74.00 L323.00,73.00 L313.00,81.00 L308.00,75.00 L300.00,72.00 L292.00,74.00 L286.00,81.00 L284.00,74.00 Z M498.00,48.00 L498.00,143.00 L513.00,143.00 L514.00,82.00 L534.00,143.00 L548.00,143.00 L548.00,48.00 L533.00,48.00 L532.00,104.00 L514.00,48.00 Z M532.00,104.00 L533.00,103.00 L534.00,104.00 L533.00,105.00 Z M446.00,48.00 L447.00,143.00 L462.00,143.00 L462.00,116.00 L465.00,111.00 L476.00,143.00 L492.00,143.00 L477.00,102.00 L477.00,98.00 L490.00,73.00 L476.00,73.00 L463.00,98.00 L462.00,48.00 Z M461.00,98.00 L462.00,97.00 L463.00,98.00 L462.00,99.00 Z M222.00,48.00 L222.00,143.00 L261.00,143.00 L261.00,130.00 L239.00,130.00 L237.00,128.00 L237.00,102.00 L257.00,101.00 L257.00,87.00 L237.00,86.00 L237.00,62.00 L260.00,61.00 L260.00,48.00 Z M86.00,0.00 L49.00,13.00 L23.00,35.00 L7.00,63.00 L0.00,101.00 L5.00,123.00 L14.00,143.00 L23.00,156.00 L40.00,172.00 L60.00,183.00 L76.00,188.00 L112.00,189.00 L143.00,178.00 L169.00,156.00 L187.00,123.00 L191.00,104.00 L191.00,86.00 L180.00,51.00 L156.00,22.00 L143.00,13.00 L106.00,0.00 Z M91.00,14.00 L122.00,18.00 L146.00,31.00 L167.00,55.00 L178.00,89.00 L175.00,118.00 L161.00,145.00 L137.00,166.00 L100.00,177.00 L66.00,171.00 L43.00,157.00 L24.00,134.00 L15.00,106.00 L48.00,105.00 L56.00,95.00 L69.00,128.00 L78.00,130.00 L95.00,70.00 L113.00,145.00 L123.00,149.00 L138.00,107.00 L163.00,105.00 L164.00,93.00 L133.00,93.00 L121.00,122.00 L98.00,40.00 L87.00,45.00 L73.00,104.00 L59.00,75.00 L50.00,78.00 L44.00,93.00 L14.00,92.00 L18.00,71.00 L33.00,44.00 L55.00,25.00 Z"/>
  </g>
</svg>